<?xml version="1.0" standalone="no"?>
<!DOCTYPE svg PUBLIC "-//W3C//DTD SVG 20010904//EN"
 "http://www.w3.org/TR/2001/REC-SVG-20010904/DTD/svg10.dtd">
<svg version="1.0" xmlns="http://www.w3.org/2000/svg"
 width="1280.000000pt" height="714.000000pt" viewBox="0 0 1280.000000 714.000000"
 preserveAspectRatio="xMidYMid meet">

<g transform="translate(0.000000,714.000000) scale(0.100000,-0.100000)"
fill="#000000" stroke="none">
<path d="M10850 4701 c-55 -8 -85 -24 -105 -55 -23 -34 -33 -297 -45 -1146
-14 -1020 -15 -973 14 -1006 30 -36 86 -39 119 -6 22 22 22 25 29 505 4 265
10 492 13 505 7 27 24 28 75 2 59 -30 105 -107 153 -255 34 -102 51 -185 87
-415 27 -169 31 -187 55 -207 31 -27 71 -29 103 -7 40 28 43 55 22 187 -67
420 -135 637 -243 777 l-34 45 61 66 c71 77 115 159 151 285 80 274 10 570
-159 669 -84 49 -196 70 -296 56z m197 -191 c73 -44 113 -154 113 -310 0 -52
-7 -123 -15 -157 -40 -172 -152 -313 -246 -313 l-22 0 7 326 c3 179 9 359 13
400 l6 74 56 0 c38 0 66 -6 88 -20z"/>
<path d="M2001 4673 c-24 -8 -66 -37 -94 -64 l-50 -48 6 -143 c7 -139 16 -426
37 -1143 6 -192 15 -433 21 -535 12 -227 7 -220 143 -220 172 0 280 42 386
149 120 121 177 267 187 482 14 288 -74 548 -234 700 -32 30 -69 61 -83 70
l-25 16 35 39 c49 55 75 99 100 174 19 56 22 81 18 175 -4 98 -8 117 -36 176
-34 72 -85 125 -154 160 -57 30 -192 36 -257 12z m161 -153 c46 -13 94 -67
109 -122 18 -67 7 -184 -23 -248 -43 -93 -128 -157 -182 -137 -13 5 -19 89
-29 417 l-2 75 35 12 c44 15 47 15 92 3z m41 -732 c61 -27 147 -119 186 -201
104 -219 103 -551 -3 -732 -28 -48 -99 -116 -146 -140 -37 -19 -150 -33 -150
-19 0 5 -5 76 -10 158 -5 83 -14 330 -20 550 -8 319 -8 401 2 408 18 11 83 0
141 -24z"/>
<path d="M4450 4683 c-135 -8 -291 -24 -315 -33 -51 -19 -58 -88 -12 -130 20
-20 31 -21 132 -18 l110 3 2 -25 c10 -100 45 -735 50 -905 9 -318 -21 -654
-69 -783 -32 -85 -98 -114 -165 -72 -75 45 -113 155 -113 324 0 100 -2 108
-25 131 -45 46 -116 26 -139 -40 -14 -40 -7 -195 13 -280 24 -98 54 -163 106
-223 50 -57 105 -84 187 -90 86 -6 126 2 178 37 117 78 170 262 192 660 12
230 4 528 -28 1008 -9 133 -14 248 -11 257 5 13 23 16 91 16 76 0 87 3 115 26
54 45 35 114 -37 134 -34 9 -132 11 -262 3z"/>
<path d="M5750 4661 c-92 -4 -164 -11 -176 -18 -34 -19 -49 -66 -32 -99 21
-45 51 -54 178 -54 l115 0 3 -243 c5 -554 23 -1534 28 -1563 6 -39 32 -63 76
-70 27 -5 40 -1 64 19 l29 25 -3 129 c-1 70 -6 317 -12 548 -5 231 -10 585
-10 787 l0 366 136 4 c129 3 137 4 155 27 28 34 25 85 -7 110 -14 11 -40 23
-58 25 -57 9 -329 13 -486 7z"/>
<path d="M1117 4649 c-11 -6 -25 -25 -32 -43 -7 -17 -45 -224 -85 -460 -39
-236 -97 -573 -130 -750 -33 -177 -60 -331 -60 -343 0 -12 -4 -24 -8 -27 -5
-3 -21 63 -36 147 -58 324 -126 743 -151 923 -31 233 -71 456 -90 501 -25 59
-107 69 -155 18 -28 -30 -26 -59 24 -275 19 -85 47 -234 61 -330 94 -630 227
-1367 255 -1421 22 -41 86 -61 135 -43 35 14 45 56 145 624 44 251 153 831
214 1136 55 278 56 309 14 339 -26 17 -75 19 -101 4z"/>
<path d="M8933 4638 c-12 -13 -38 -75 -58 -138 -36 -112 -224 -670 -263 -780
l-19 -55 -17 40 c-50 117 -149 412 -260 777 -28 89 -43 122 -63 137 -50 40
-111 19 -141 -48 -15 -32 -17 -139 -20 -981 -3 -678 -1 -955 7 -982 10 -30 18
-39 47 -47 45 -12 77 -1 101 36 17 25 18 56 15 433 -2 223 -5 425 -7 450 -5
79 8 611 15 603 4 -4 48 -134 100 -288 98 -298 135 -385 174 -410 36 -24 95
-16 117 15 18 23 62 147 209 585 l57 170 7 -85 c3 -47 11 -404 17 -794 10
-697 12 -738 43 -758 26 -18 83 -8 107 18 29 31 28 -56 12 1150 -7 508 -17
903 -22 917 -22 58 -117 79 -158 35z"/>
<path d="M9993 4636 c-140 -44 -243 -183 -298 -400 -49 -196 -60 -308 -60
-651 0 -431 26 -609 119 -800 55 -115 109 -175 191 -216 60 -29 70 -31 148
-27 95 5 148 29 213 96 42 43 104 167 133 267 93 318 93 966 0 1345 -28 115
-99 260 -152 312 -82 80 -188 107 -294 74z m144 -175 c207 -127 275 -1217 100
-1612 -63 -142 -163 -182 -257 -103 -64 54 -126 226 -157 434 -24 162 -24 645
0 810 36 246 84 377 164 450 50 46 97 53 150 21z"/>
<path d="M11914 4641 c-147 -38 -266 -183 -338 -411 -107 -337 -107 -1010 -1
-1326 59 -176 134 -282 234 -331 75 -37 193 -40 258 -5 158 83 226 289 253
762 13 228 8 261 -50 294 -31 18 -52 21 -170 21 -180 0 -220 -17 -220 -93 0
-16 9 -40 19 -53 19 -23 23 -24 141 -21 l121 3 -6 -108 c-8 -140 -40 -372 -66
-470 -48 -185 -132 -237 -237 -147 -132 113 -208 530 -182 999 26 462 139 725
313 725 63 0 86 -13 146 -81 43 -49 58 -59 84 -59 78 0 104 60 62 145 -30 62
-69 99 -140 131 -55 26 -169 38 -221 25z"/>
<path d="M7432 4606 c-17 -19 -33 -47 -36 -63 -16 -75 -58 -355 -91 -603 -41
-315 -58 -437 -121 -860 -25 -168 -47 -350 -51 -406 -6 -98 -5 -101 18 -117
13 -10 34 -17 47 -17 56 0 74 31 87 145 12 107 75 469 83 476 12 12 304 51
312 42 4 -4 20 -91 34 -193 72 -512 68 -494 113 -511 34 -13 89 5 104 34 18
33 12 100 -36 405 -25 158 -54 352 -65 432 -46 340 -145 946 -175 1077 -23 98
-48 147 -87 171 -54 33 -100 29 -136 -12z m188 -951 c16 -115 32 -223 35 -238
4 -22 0 -29 -20 -37 -25 -9 -237 -41 -242 -36 -3 2 14 130 92 701 15 105 29
197 32 205 6 16 53 -255 103 -595z"/>
<path d="M1455 4611 c-11 -5 -28 -18 -38 -29 -17 -18 -18 -38 -14 -244 2 -122
9 -545 16 -938 6 -393 14 -734 17 -758 7 -57 33 -82 84 -82 31 0 47 7 67 26
l25 25 -6 267 c-4 147 -11 537 -16 867 -10 634 -17 798 -32 828 -8 15 -67 49
-80 46 -2 0 -12 -4 -23 -8z"/>
<path d="M2860 4567 c-21 -8 -41 -25 -53 -44 -18 -31 -18 -52 -7 -620 6 -323
12 -747 13 -942 l2 -354 25 -19 c46 -34 181 -44 358 -26 135 13 155 17 177 38
36 34 32 94 -7 123 -27 20 -32 21 -180 9 -84 -7 -168 -10 -187 -6 l-34 7 6
350 c3 192 9 353 14 357 4 5 66 13 137 19 81 7 138 17 152 26 49 32 37 123
-19 144 -13 5 -78 4 -150 -2 -70 -6 -129 -8 -132 -5 -3 3 -8 181 -12 396 l-6
392 150 0 c199 0 233 13 233 89 0 37 -30 67 -75 75 -56 11 -367 5 -405 -7z"/>
<path d="M5117 4570 c-120 -21 -232 -112 -294 -237 -39 -79 -39 -109 -1 -150
46 -49 103 -21 152 74 33 66 103 127 161 142 167 42 211 -115 124 -449 -39
-152 -120 -378 -269 -750 -127 -315 -210 -552 -210 -596 0 -31 42 -74 72 -74
13 0 89 7 170 15 81 8 211 18 289 21 127 7 144 10 168 30 37 32 37 102 -1 140
l-27 27 -198 -11 c-277 -17 -257 -19 -250 21 5 33 45 134 172 442 204 494 305
827 305 1009 0 105 -15 166 -60 234 -30 47 -49 65 -91 86 -61 29 -141 39 -212
26z"/>
<path d="M6484 4569 c-18 -5 -40 -21 -50 -36 -17 -25 -19 -46 -16 -223 2 -107
6 -534 10 -949 l7 -754 25 -18 c41 -31 199 -44 344 -29 67 6 133 14 148 17 99
20 88 162 -13 166 -19 0 -89 -5 -155 -12 -67 -8 -138 -11 -158 -7 l-36 7 0
348 c0 267 3 351 13 359 6 5 70 15 142 21 80 7 138 17 152 26 45 30 41 101 -7
136 -23 17 -33 17 -155 5 -71 -7 -133 -11 -137 -7 -4 4 -11 183 -14 399 l-7
392 159 0 c172 0 198 6 223 52 21 38 5 78 -39 100 -30 15 -63 18 -220 17 -102
0 -199 -5 -216 -10z"/>
<path d="M3633 2725 c-90 -39 -97 -177 -11 -221 88 -46 186 42 159 144 -20 71
-85 105 -148 77z"/>
<path d="M9396 2729 c-40 -11 -64 -36 -77 -80 -14 -46 -7 -78 27 -118 50 -60
144 -48 178 24 20 41 20 66 2 108 -24 58 -73 83 -130 66z"/>
</g>
</svg>
